<svg width="40" height="40" viewBox="0 0 40 40" fill="none" xmlns="http://www.w3.org/2000/svg">
<path d="M3.07548 9.59361C3.06457 9.39182 3.01402 9.19415 2.92672 9.0119C2.83942 8.82964 2.71707 8.66636 2.56667 8.53139C2.41626 8.39642 2.24075 8.29239 2.05014 8.22525C1.85953 8.15811 1.65757 8.12917 1.45578 8.14008C1.25398 8.15099 1.05632 8.20154 0.874062 8.28884C0.691806 8.37615 0.528531 8.49849 0.393558 8.6489C0.258585 8.7993 0.154558 8.97482 0.0874166 9.16542C0.020275 9.35603 -0.00866649 9.55799 0.00224482 9.75979L3.07548 9.59361ZM5.05729 1.72998C4.78785 2.02774 4.64549 2.41904 4.66062 2.82033C4.67575 3.22162 4.84716 3.60109 5.13825 3.87772C5.42935 4.15436 5.81706 4.30623 6.21859 4.3009C6.62013 4.29558 7.00368 4.13349 7.28734 3.84924L5.05729 1.72998ZM17.2559 36.0321C17.427 36.1423 17.6182 36.2176 17.8186 36.2534C18.019 36.2892 18.2245 36.2849 18.4232 36.2408C18.6219 36.1966 18.8098 36.1135 18.9762 35.9962C19.1425 35.8788 19.2839 35.7297 19.3922 35.5574C19.5005 35.385 19.5735 35.1929 19.6071 34.9921C19.6406 34.7913 19.6339 34.5859 19.5875 34.3877C19.5411 34.1896 19.4558 34.0026 19.3366 33.8376C19.2174 33.6726 19.0666 33.5329 18.893 33.4266L17.2559 36.0321ZM26.3833 36.5368C25.9836 36.4532 25.5672 36.5319 25.2255 36.7554C24.8839 36.979 24.645 37.3291 24.5615 37.7287C24.478 38.1284 24.5566 38.5448 24.7802 38.8865C25.0037 39.2281 25.3538 39.467 25.7534 39.5505L26.3833 36.5368ZM27.4747 27.276L28.4082 26.2913L26.1761 24.172L25.2426 25.1568L27.4747 27.276ZM31.4834 25.8769L35.4019 28.1336L36.9385 25.4665L33.018 23.2098L31.4834 25.8769ZM36.159 32.8111L33.2437 35.8782L35.4758 37.9995L38.389 34.9304L36.159 32.8111ZM12.527 28.1274C4.57517 19.755 3.24166 12.6915 3.07548 9.59361L0.00224482 9.75979C0.207401 13.5552 1.81582 21.3183 10.297 30.2467L12.527 28.1274ZM15.35 14.5112L15.9367 13.8916L13.7067 11.7724L13.1179 12.3919L15.35 14.5112ZM16.4004 6.17776L13.8134 2.51983L11.3002 4.29648L13.8852 7.95441L16.4004 6.17776ZM14.2319 13.4505C13.8626 13.0947 13.4899 12.7425 13.1138 12.394L13.1097 12.3981L13.1035 12.4042C13.0671 12.4419 13.0328 12.4817 13.0009 12.5232C12.7998 12.7894 12.6407 13.0849 12.5291 13.3993C12.328 13.9634 12.2213 14.7102 12.3567 15.6416C12.6234 17.4716 13.8236 19.9314 16.9563 23.2324L19.1884 21.1111C16.2588 18.0276 15.5367 16.1299 15.4013 15.1944C15.3356 14.743 15.4013 14.5071 15.4279 14.4312L15.4443 14.3922C15.4276 14.4192 15.4083 14.4446 15.3869 14.4681C15.3749 14.482 15.3626 14.4978 15.35 14.5112L14.2319 13.4505ZM16.9563 23.2303C20.0809 26.521 22.4402 27.8135 24.2394 28.1069C25.1646 28.2567 25.9135 28.1356 26.4797 27.912C26.7941 27.789 27.0865 27.6158 27.3454 27.3991L27.4173 27.3294L27.446 27.3006C27.4508 27.2966 27.4556 27.2925 27.4603 27.2883L27.4665 27.2822L27.4685 27.2781C27.4685 27.2781 27.4726 27.276 26.3566 26.2154C25.2405 25.1568 25.2426 25.1547 25.2426 25.1526L25.2467 25.1506L25.2508 25.1444L25.2631 25.1342C25.2941 25.1042 25.3263 25.0755 25.3595 25.048C25.378 25.0357 25.3759 25.0398 25.3493 25.0501C25.3082 25.0665 25.1236 25.1321 24.7338 25.0685C23.9091 24.9331 22.1283 24.2069 19.1884 21.1111L16.9563 23.2303ZM13.8134 2.51983C11.7331 -0.422112 7.5725 -0.920642 5.05729 1.72998L7.28734 3.84924C8.3603 2.72088 10.2498 2.8091 11.3002 4.29648L13.8134 2.51983ZM33.2437 35.8782C32.6713 36.4814 32.0743 36.8055 31.4917 36.863L31.7932 39.9239C33.3257 39.7741 34.5669 38.9576 35.4758 37.9995L33.2437 35.8782ZM15.9367 13.8916C17.9226 11.8011 18.0621 8.5309 16.4004 6.17776L13.8872 7.95441C14.753 9.17919 14.6196 10.8122 13.7067 11.7724L15.9367 13.8916ZM35.4019 28.1336C37.0863 29.104 37.4166 31.4879 36.159 32.8111L38.389 34.9304C41.0663 32.1115 40.2867 27.395 36.9385 25.4665L35.4019 28.1336ZM28.4082 26.2913C29.198 25.4583 30.431 25.2716 31.4834 25.8769L33.018 23.2098C30.7634 21.9132 27.9712 22.2846 26.1761 24.172L28.4082 26.2913ZM18.893 33.4266C16.8763 32.1587 14.7283 30.4436 12.527 28.1274L10.297 30.2467C12.6645 32.7393 15.0094 34.6206 17.2559 36.0321L18.893 33.4266ZM31.4896 36.863C29.7808 37.013 28.0591 36.903 26.3833 36.5368L25.7534 39.5505C27.7362 39.98 29.7727 40.1059 31.7932 39.9239L31.4896 36.863Z" fill="white"/>
</svg>
